<mxfile host="app.diagrams.net" agent="Mozilla/5.0 (Windows NT 10.0; Win64; x64) AppleWebKit/537.36 (KHTML, like Gecko) Chrome/128.0.0.0 Safari/537.36" version="24.7.10">
  <diagram name="페이지-1" id="C4126NrP7IoHm__BrpwN">
    <mxGraphModel dx="1195" dy="650" grid="1" gridSize="10" guides="1" tooltips="1" connect="1" arrows="1" fold="1" page="1" pageScale="1" pageWidth="827" pageHeight="1169" math="0" shadow="0">
      <root>
        <mxCell id="0" />
        <mxCell id="1" parent="0" />
        <mxCell id="NyMIy-wFPWEmBJXdMe4p-6" style="edgeStyle=orthogonalEdgeStyle;rounded=0;orthogonalLoop=1;jettySize=auto;html=1;entryX=0.5;entryY=1;entryDx=0;entryDy=0;" edge="1" parent="1" source="NyMIy-wFPWEmBJXdMe4p-2" target="NyMIy-wFPWEmBJXdMe4p-4">
          <mxGeometry relative="1" as="geometry" />
        </mxCell>
        <mxCell id="NyMIy-wFPWEmBJXdMe4p-2" value="" style="sketch=0;outlineConnect=0;fontColor=#232F3E;gradientColor=none;fillColor=#7AA116;strokeColor=none;dashed=0;verticalLabelPosition=bottom;verticalAlign=top;align=center;html=1;fontSize=12;fontStyle=0;aspect=fixed;pointerEvents=1;shape=mxgraph.aws4.iot_thing_plc;" vertex="1" parent="1">
          <mxGeometry x="600.5" y="280" width="70" height="70" as="geometry" />
        </mxCell>
        <mxCell id="NyMIy-wFPWEmBJXdMe4p-5" style="edgeStyle=orthogonalEdgeStyle;rounded=0;orthogonalLoop=1;jettySize=auto;html=1;entryX=0.5;entryY=1;entryDx=0;entryDy=0;" edge="1" parent="1" source="NyMIy-wFPWEmBJXdMe4p-3" target="NyMIy-wFPWEmBJXdMe4p-4">
          <mxGeometry relative="1" as="geometry" />
        </mxCell>
        <mxCell id="NyMIy-wFPWEmBJXdMe4p-3" value="" style="html=1;verticalLabelPosition=bottom;align=center;labelBackgroundColor=#ffffff;verticalAlign=top;strokeWidth=2;strokeColor=#0080F0;shadow=0;dashed=0;shape=mxgraph.ios7.icons.monitor;" vertex="1" parent="1">
          <mxGeometry x="451.5" y="280" width="86" height="70" as="geometry" />
        </mxCell>
        <mxCell id="NyMIy-wFPWEmBJXdMe4p-4" value="" style="image;aspect=fixed;perimeter=ellipsePerimeter;html=1;align=center;shadow=0;dashed=0;spacingTop=3;image=img/lib/active_directory/wiring_hub.svg;" vertex="1" parent="1">
          <mxGeometry x="520.5" y="130" width="102.94" height="70" as="geometry" />
        </mxCell>
        <mxCell id="NyMIy-wFPWEmBJXdMe4p-7" value="PLC 내부 망" style="text;html=1;align=center;verticalAlign=middle;whiteSpace=wrap;rounded=0;" vertex="1" parent="1">
          <mxGeometry x="523.44" y="98" width="100" height="30" as="geometry" />
        </mxCell>
        <mxCell id="NyMIy-wFPWEmBJXdMe4p-11" style="edgeStyle=orthogonalEdgeStyle;rounded=0;orthogonalLoop=1;jettySize=auto;html=1;entryX=0;entryY=0.5;entryDx=0;entryDy=0;" edge="1" parent="1" source="NyMIy-wFPWEmBJXdMe4p-8" target="NyMIy-wFPWEmBJXdMe4p-4">
          <mxGeometry relative="1" as="geometry" />
        </mxCell>
        <mxCell id="NyMIy-wFPWEmBJXdMe4p-8" value="" style="image;points=[];aspect=fixed;html=1;align=center;shadow=0;dashed=0;image=img/lib/allied_telesis/computer_and_terminals/Personal_Computer.svg;" vertex="1" parent="1">
          <mxGeometry x="359" y="134.2" width="45.6" height="61.800000000000004" as="geometry" />
        </mxCell>
        <mxCell id="NyMIy-wFPWEmBJXdMe4p-10" value="MiniPC" style="text;html=1;align=center;verticalAlign=middle;whiteSpace=wrap;rounded=0;" vertex="1" parent="1">
          <mxGeometry x="351.8" y="96" width="60" height="30" as="geometry" />
        </mxCell>
        <mxCell id="NyMIy-wFPWEmBJXdMe4p-12" value="HMI" style="text;html=1;align=center;verticalAlign=middle;whiteSpace=wrap;rounded=0;" vertex="1" parent="1">
          <mxGeometry x="464.5" y="370" width="60" height="30" as="geometry" />
        </mxCell>
        <mxCell id="NyMIy-wFPWEmBJXdMe4p-13" value="PLC" style="text;html=1;align=center;verticalAlign=middle;whiteSpace=wrap;rounded=0;" vertex="1" parent="1">
          <mxGeometry x="605.5" y="370" width="60" height="30" as="geometry" />
        </mxCell>
        <mxCell id="NyMIy-wFPWEmBJXdMe4p-19" style="edgeStyle=orthogonalEdgeStyle;rounded=0;orthogonalLoop=1;jettySize=auto;html=1;entryX=0;entryY=0.5;entryDx=0;entryDy=0;" edge="1" parent="1" source="NyMIy-wFPWEmBJXdMe4p-14" target="NyMIy-wFPWEmBJXdMe4p-17">
          <mxGeometry relative="1" as="geometry" />
        </mxCell>
        <mxCell id="NyMIy-wFPWEmBJXdMe4p-14" value="" style="sketch=0;aspect=fixed;pointerEvents=1;shadow=0;dashed=0;html=1;strokeColor=none;labelPosition=center;verticalLabelPosition=bottom;verticalAlign=top;align=center;fillColor=#00188D;shape=mxgraph.azure.computer" vertex="1" parent="1">
          <mxGeometry x="49" y="127.25" width="75" height="67.5" as="geometry" />
        </mxCell>
        <mxCell id="NyMIy-wFPWEmBJXdMe4p-15" value="ROC User" style="text;html=1;align=center;verticalAlign=middle;whiteSpace=wrap;rounded=0;" vertex="1" parent="1">
          <mxGeometry x="55.5" y="96" width="60" height="30" as="geometry" />
        </mxCell>
        <mxCell id="NyMIy-wFPWEmBJXdMe4p-17" value="" style="image;aspect=fixed;perimeter=ellipsePerimeter;html=1;align=center;shadow=0;dashed=0;spacingTop=3;image=img/lib/active_directory/wiring_hub.svg;" vertex="1" parent="1">
          <mxGeometry x="198.5" y="126" width="102.94" height="70" as="geometry" />
        </mxCell>
        <mxCell id="NyMIy-wFPWEmBJXdMe4p-18" style="edgeStyle=orthogonalEdgeStyle;rounded=0;orthogonalLoop=1;jettySize=auto;html=1;entryX=0;entryY=0.444;entryDx=0;entryDy=0;entryPerimeter=0;" edge="1" parent="1" source="NyMIy-wFPWEmBJXdMe4p-17" target="NyMIy-wFPWEmBJXdMe4p-8">
          <mxGeometry relative="1" as="geometry" />
        </mxCell>
        <mxCell id="NyMIy-wFPWEmBJXdMe4p-21" style="edgeStyle=orthogonalEdgeStyle;rounded=0;orthogonalLoop=1;jettySize=auto;html=1;entryX=0.5;entryY=1;entryDx=0;entryDy=0;" edge="1" parent="1" source="NyMIy-wFPWEmBJXdMe4p-20" target="NyMIy-wFPWEmBJXdMe4p-17">
          <mxGeometry relative="1" as="geometry" />
        </mxCell>
        <mxCell id="NyMIy-wFPWEmBJXdMe4p-20" value="" style="image;html=1;image=img/lib/clip_art/computers/Netbook_128x128.png" vertex="1" parent="1">
          <mxGeometry x="46.5" y="240" width="80" height="80" as="geometry" />
        </mxCell>
        <mxCell id="NyMIy-wFPWEmBJXdMe4p-22" value="GR 망" style="text;html=1;align=center;verticalAlign=middle;whiteSpace=wrap;rounded=0;" vertex="1" parent="1">
          <mxGeometry x="198.50000000000006" y="95" width="100" height="30" as="geometry" />
        </mxCell>
      </root>
    </mxGraphModel>
  </diagram>
</mxfile>
